<?xml version="1.0" encoding="UTF-8" standalone="no"?>
<svg width="32" height="32" viewBox="0 0 24 24" version="1.1" id="svg1" xml:space="preserve"
  xmlns="http://www.w3.org/2000/svg" xmlns:svg="http://www.w3.org/2000/svg">
  <defs id="defs1" />
  <path fill="currentColor"
    d="M 6,22 C 5.45,22 4.979,21.804 4.587,21.412 4.195,21.02 3.9993333,20.549333 4,20 V 4 C 4,3.45 4.196,2.979 4.588,2.587 4.98,2.195 5.4506667,1.9993333 6,2 h 8 l 6,6 v 12 c 0,0.55 -0.196,1.021 -0.588,1.413 C 19.02,21.805 18.549333,22.000667 18,22 Z M 13,9 h 5 L 13,4 Z m -5.8880933,9.669723 h 9.5724213 l -2.991381,-3.98851 -2.393106,3.190808 -1.7948288,-2.393105 z M 9.1061613,13.08581 c 0.332376,0 0.6150281,-0.116465 0.8479576,-0.349393 0.2329281,-0.23293 0.3491271,-0.515317 0.3485951,-0.84716 0,-0.332376 -0.116464,-0.615029 -0.3493937,-0.847957 -0.2329286,-0.232929 -0.5153151,-0.349128 -0.847159,-0.348596 -0.3323761,0 -0.6150282,0.116464 -0.8479571,0.349393 -0.232929,0.23293 -0.3491278,0.515316 -0.3485957,0.84716 0,0.332376 0.1164644,0.615028 0.3493934,0.847957 0.2329289,0.232929 0.5153154,0.349128 0.8471594,0.348596 z"
    id="path1" />
</svg>