<?xml version="1.0" encoding="UTF-8" standalone="no"?>
<svg width="32" height="32" viewBox="0 0 24 24" version="1.1" id="svg1" xml:space="preserve"
  xmlns="http://www.w3.org/2000/svg" xmlns:svg="http://www.w3.org/2000/svg">
  <defs id="defs1" />
  <path fill="currentColor"
    d="M 6,22 C 5.45,22 4.979,21.804 4.587,21.412 4.195,21.02 3.9993333,20.549333 4,20 V 4 C 4,3.45 4.196,2.979 4.588,2.587 4.98,2.195 5.4506667,1.9993333 6,2 h 8 l 6,6 v 12 c 0,0.55 -0.196,1.021 -0.588,1.413 C 19.02,21.805 18.549333,22.000667 18,22 Z M 13,9 h 5 L 13,4 Z m -6.299094,9.065324 h 1 v -2 h 1 c 0.283333,0 0.521,-0.096 0.713,-0.288 0.192,-0.192 0.287667,-0.429333 0.287,-0.712 v -1 c 0,-0.283334 -0.096,-0.521 -0.288,-0.713 -0.192,-0.192 -0.429333,-0.287667 -0.712,-0.287 h -2 z m 1,-3 v -1 h 1 v 1 z m 3,3 h 2 c 0.283333,0 0.520999,-0.096 0.712999,-0.288 0.192,-0.192 0.287667,-0.429333 0.287,-0.712 v -3 c 0,-0.283334 -0.096,-0.521 -0.288,-0.713 -0.192,-0.192 -0.429332,-0.287667 -0.711999,-0.287 h -2 z m 1,-1 v -3 h 1 v 3 z m 2.999999,1 h 1 v -2 h 1 v -1 h -1 v -1 h 1 v -1 h -2 z"
    id="path1" />
</svg>